<svg width="36" height="40" fill="none" xmlns="http://www.w3.org/2000/svg"><path d="M20.59 18.635l3.28-1.798v20.119l-3.046 1.855-.234-20.176zm5.946-3.371l3.28-1.798v20.119L26.77 35.44l-.235-20.176zm5.956-3.414l3.279-1.797V30.17l-3.045 1.855-.234-20.176zm-2.336-5.146l3.201 1.93L15.706 18.6l-3.136-1.7L30.155 6.704zm-6.042-3.338l3.201 1.93L9.664 15.26l-3.137-1.7L24.114 3.366zM18.562.019l3.2 1.93-17.65 9.965-3.137-1.7L18.562.019zm-.082 22.817l-.102 3.71L.873 16.33l-.069-3.539L18.48 22.836zm0 6.876l-.102 3.71L.873 23.208l-.069-3.54L18.48 29.713zm0 6.551l-.102 3.71L.873 29.757l-.069-3.54L18.48 36.264z" fill="#C6FF00"/></svg>