<svg width="40" height="40" fill="none" xmlns="http://www.w3.org/2000/svg"><rect width="40" height="40" rx="8" fill="#1E1E1E"/><g clip-path="url(#clip0_2247_255)"><path d="M20 20c0-1.237.474-2.424 1.318-3.3a4.42 4.42 0 013.182-1.366 4.42 4.42 0 013.182 1.367A4.756 4.756 0 0129 20a4.756 4.756 0 01-1.318 3.3 4.42 4.42 0 01-3.182 1.366 4.42 4.42 0 01-3.182-1.367A4.756 4.756 0 0120 20z" fill="#1ABCFE"/><path d="M11 29.333c0-1.238.474-2.425 1.318-3.3a4.42 4.42 0 013.182-1.367H20v4.667a4.756 4.756 0 01-1.318 3.3 4.42 4.42 0 01-3.182 1.366 4.42 4.42 0 01-3.182-1.367 4.756 4.756 0 01-1.318-3.3z" fill="#0ACF83"/><path d="M20 6v9.333h4.5a4.42 4.42 0 003.182-1.367 4.756 4.756 0 001.318-3.3 4.756 4.756 0 00-1.318-3.3A4.42 4.42 0 0024.5 6H20z" fill="#FF7262"/><path d="M11 10.667c0 1.237.474 2.424 1.318 3.3a4.42 4.42 0 003.182 1.366H20V6h-4.5a4.42 4.42 0 00-3.182 1.367 4.756 4.756 0 00-1.318 3.3z" fill="#F24E1E"/><path d="M11 20c0 1.238.474 2.425 1.318 3.3a4.42 4.42 0 003.182 1.367H20v-9.333h-4.5a4.42 4.42 0 00-3.182 1.367A4.756 4.756 0 0011 20z" fill="#A259FF"/></g><defs><clipPath id="clip0_2247_255"><path fill="#fff" transform="translate(11 6)" d="M0 0h18v28H0z"/></clipPath></defs></svg>