<svg width="40" height="40" fill="none" xmlns="http://www.w3.org/2000/svg"><path d="M7.084.5h25.832A7.077 7.077 0 0140 7.584v24.833a7.077 7.077 0 01-7.084 7.084H7.084A7.077 7.077 0 010 32.417V7.584A7.077 7.077 0 017.084.5z" fill="#001E36"/><path d="M9 27.848v-17.15c0-.116.05-.183.167-.183.284 0 .55 0 .933-.017.4-.016.817-.016 1.267-.033.45-.017.933-.017 1.45-.034.516-.017 1.017-.017 1.516-.017 1.367 0 2.5.167 3.433.517.834.283 1.6.75 2.233 1.367a5.31 5.31 0 011.217 1.9c.25.7.383 1.417.383 2.167 0 1.433-.333 2.617-1 3.55a5.71 5.71 0 01-2.683 2.034c-1.134.417-2.384.566-3.75.566-.4 0-.667 0-.834-.017-.168-.016-.4-.016-.717-.016v5.35a.207.207 0 01-.183.233H9.2c-.133 0-.2-.067-.2-.217zm3.633-14.117v5.6c.234.017.45.034.65.034h.883c.65 0 1.3-.1 1.917-.3.533-.15 1-.467 1.367-.884.35-.417.516-.983.516-1.716a2.743 2.743 0 00-.383-1.484 2.42 2.42 0 00-1.166-.95 4.89 4.89 0 00-1.966-.333c-.434 0-.817 0-1.134.016-.334-.016-.567 0-.684.017zM32 18.313a5.909 5.909 0 00-1.6-.567 8.793 8.793 0 00-1.867-.217 3.341 3.341 0 00-1 .116.855.855 0 00-.517.334.883.883 0 00-.133.45c0 .15.066.3.167.433.15.184.35.334.567.45.383.2.783.383 1.183.55.9.3 1.767.717 2.567 1.217.55.35 1 .817 1.317 1.383.266.534.4 1.117.383 1.717a3.882 3.882 0 01-.65 2.217 4.179 4.179 0 01-1.867 1.483c-.817.35-1.817.534-3.017.534-.767 0-1.516-.067-2.266-.217a6.752 6.752 0 01-1.7-.534c-.116-.066-.2-.183-.183-.316v-2.9c0-.05.017-.116.067-.15.05-.034.1-.017.15.017.65.383 1.333.65 2.067.817.633.167 1.3.25 1.966.25.634 0 1.083-.084 1.383-.233.267-.117.45-.4.45-.7 0-.233-.134-.45-.4-.667-.267-.217-.817-.467-1.634-.783-.85-.3-1.634-.7-2.366-1.2A4.308 4.308 0 0123.8 20.38a3.572 3.572 0 01-.383-1.7c0-.716.2-1.4.567-2.017a4.107 4.107 0 011.75-1.533c.783-.4 1.767-.583 2.95-.583.684 0 1.384.05 2.067.15.5.067.983.2 1.434.383.067.017.133.084.167.15a.825.825 0 01.033.2v2.717a.205.205 0 01-.084.167c-.152.033-.235.033-.302 0z" fill="#31A8FF"/></svg>