<svg width="32" height="30" fill="none" xmlns="http://www.w3.org/2000/svg"><g clip-path="url(#clip0_2247_262)"><path d="M16 .5l-9.018.954L0 10.825l16 18.632 16-18.632-6.982-9.373L16 .5z" fill="#FDB300"/><path d="M0 10.826l16 18.632-9.52-18.632H0zm25.52 0L16 29.458l16-18.632h-6.48z" fill="#EB6C00"/><path d="M6.48 10.826L16 29.458l9.519-18.632H6.48z" fill="#FDAD00"/><path d="M6.982 1.454l-.502 9.372L16 .5l-9.018.954zm18.538 9.372l-.502-9.373L16 .5l9.52 10.326z" fill="#FDD231"/><path d="M25.52 10.826H32l-6.98-9.373.5 9.373zm-25.52 0h6.48l.502-9.373L0 10.826z" fill="#FDAD00"/><path d="M16 .5L6.48 10.826h19.04L15.999.5z" fill="#FEEEB7"/></g><defs><clipPath id="clip0_2247_262"><path fill="#fff" transform="translate(0 .5)" d="M0 0h32v29H0z"/></clipPath></defs></svg>